<svg xmlns="http://www.w3.org/2000/svg" width="64" height="64" viewBox="0 0 64 64">
  <defs>
    <style>
      .cls-1 {
        fill: #fff;
        fill-rule: evenodd;
      }
    </style>
  </defs>
  <path id="zabota6.svg" class="cls-1" d="M1487.77,1022.63h-3.08v-19.5a1.032,1.032,0,0,0-1.87-.59l-14.37,20.53a1.033,1.033,0,0,0,.25,1.43,1.061,1.061,0,0,0,.59.19h13.34v3.08a1.03,1.03,0,0,0,2.06,0v-3.08h3.08A1.03,1.03,0,0,0,1487.77,1022.63Zm-5.14,0h-11.37l11.37-16.24v16.24Zm-13.34,4.11h-12.15l11.3-13.3c0.02-.03.05-0.07,0.07-0.1a7.139,7.139,0,0,0-1.61-9.69,8.216,8.216,0,0,0-13.01,6.67,1.03,1.03,0,0,0,2.06,0,6.164,6.164,0,0,1,9.75-5.01,5.086,5.086,0,0,1,1.13,6.85l-12.69,14.94a1.021,1.021,0,0,0,.12,1.45,0.994,0.994,0,0,0,.66.24h14.37A1.025,1.025,0,1,0,1469.29,1026.74Zm-14.35-5.11a1.028,1.028,0,0,0-.98-1.07h0a25.613,25.613,0,0,1-24.66-24.613h4.07a1.027,1.027,0,0,0,0-2.053h-4.07a25.594,25.594,0,0,1,24.59-24.6v3.042a1.03,1.03,0,0,0,2.06,0V969.3a25.615,25.615,0,0,1,24.58,24.121l-4-4a1.026,1.026,0,0,0-1.45,1.451l5.73,5.73a0.934,0.934,0,0,0,.4.294q0.06,0.018.12,0.03a1.1,1.1,0,0,0,.22.052h0.06a1.04,1.04,0,0,0,.23-0.045,1.014,1.014,0,0,0,.12-0.023,1.1,1.1,0,0,0,.38-0.232l5.8-5.806a1.018,1.018,0,0,0-.02-1.451,1.032,1.032,0,0,0-1.43,0l-4.1,4.1a27.673,27.673,0,0,0-27.6-26.292,0.551,0.551,0,0,0-.07-0.015c-0.02,0-.05.014-0.07,0.015a27.666,27.666,0,0,0-27.63,27.626c0,0.026-.01.047-0.01,0.073s0.01,0.047.01,0.073a27.685,27.685,0,0,0,26.66,27.616h0.04A1.016,1.016,0,0,0,1454.94,1021.63Zm13.77-40.5a1.024,1.024,0,0,0-1.45,0l-11.03,11.029a3.215,3.215,0,0,0-2.62,0l-5.22-5.223a1.026,1.026,0,0,0-1.45,1.452l5.21,5.212a3.073,3.073,0,1,0,5.54,0l11.02-11.02A1.027,1.027,0,0,0,1468.71,981.131Zm-13.06,14.515h0a1.049,1.049,0,0,1-1.45,0,1.018,1.018,0,0,1-.01-1.451A1.029,1.029,0,1,1,1455.65,995.646Zm33.32,26.984h-3.08v-19.5a1.025,1.025,0,0,0-1.86-.59l-14.37,20.53a1.024,1.024,0,0,0,.25,1.43,1.036,1.036,0,0,0,.59.19h13.34v3.08a1.025,1.025,0,0,0,2.05,0v-3.08h3.08A1.03,1.03,0,1,0,1488.97,1022.63Zm-5.13,0h-11.37l11.37-16.24v16.24Zm-13.34,4.11h-12.15l11.29-13.3c0.03-.03.05-0.07,0.08-0.1a7.141,7.141,0,0,0-1.62-9.69,8.2,8.2,0,0,0-13,6.67,1.025,1.025,0,0,0,2.05,0,6.172,6.172,0,0,1,9.76-5.01,5.074,5.074,0,0,1,1.12,6.85l-12.68,14.94a1.029,1.029,0,0,0,.11,1.45,1.039,1.039,0,0,0,.67.24h14.37A1.025,1.025,0,0,0,1470.5,1026.74Zm-14.35-5.11a1.029,1.029,0,0,0-.99-1.07h0a25.62,25.62,0,0,1-24.66-24.613h4.07a1.027,1.027,0,1,0,0-2.053h-4.07a25.61,25.61,0,0,1,24.6-24.6v3.042a1.025,1.025,0,1,0,2.05,0V969.3a25.617,25.617,0,0,1,24.59,24.121l-4-4a1.029,1.029,0,0,0-1.46,1.451l5.73,5.73a1.031,1.031,0,0,0,.41.294q0.06,0.018.12,0.03a0.956,0.956,0,0,0,.22.052h0.06a1.04,1.04,0,0,0,.23-0.045,1.014,1.014,0,0,0,.12-0.023,0.973,0.973,0,0,0,.37-0.232l5.81-5.806a1.026,1.026,0,0,0-1.45-1.451l-4.1,4.1a27.679,27.679,0,0,0-27.6-26.292c-0.02,0-.05-0.015-0.07-0.015a0.551,0.551,0,0,0-.07.015,27.666,27.666,0,0,0-27.63,27.626c0,0.026-.01.047-0.01,0.073s0.01,0.047.01,0.073a27.678,27.678,0,0,0,26.66,27.616h0.04A1.016,1.016,0,0,0,1456.15,1021.63Zm13.77-40.5a1.024,1.024,0,0,0-1.45,0l-11.03,11.029a3.215,3.215,0,0,0-2.62,0l-5.22-5.223a1.03,1.03,0,0,0-1.46,1.452l5.22,5.212a3.073,3.073,0,1,0,5.54,0l11.02-11.02A1.027,1.027,0,0,0,1469.92,981.131Zm-13.07,14.515h0a1.049,1.049,0,0,1-1.45,0A1.026,1.026,0,1,1,1456.85,995.646Zm32.12,25.784h-3.08v-19.51a1.024,1.024,0,0,0-1.02-1.02,1,1,0,0,0-.84.44l-14.37,20.52a1.024,1.024,0,0,0,.25,1.43,1.036,1.036,0,0,0,.59.19h13.34v3.08a1.025,1.025,0,0,0,2.05,0v-3.08h3.08A1.025,1.025,0,1,0,1488.97,1021.43Zm-5.13,0h-11.37l11.37-16.25v16.25Zm-13.34,4.1h-12.15l11.29-13.3a0.874,0.874,0,0,0,.08-0.1,7.143,7.143,0,0,0-1.62-9.69,8.209,8.209,0,0,0-13,6.67,1.025,1.025,0,1,0,2.05,0,6.162,6.162,0,0,1,9.76-5,5.062,5.062,0,0,1,1.12,6.84l-12.68,14.94a1.028,1.028,0,0,0,.11,1.45,1.039,1.039,0,0,0,.67.24h14.37A1.025,1.025,0,0,0,1470.5,1025.53Zm-14.35-5.11a1.036,1.036,0,0,0-.99-1.07h0a25.62,25.62,0,0,1-24.66-24.611h4.07a1.026,1.026,0,1,0,0-2.052h-4.07a25.609,25.609,0,0,1,24.6-24.6v3.042a1.025,1.025,0,1,0,2.05,0V968.09a25.617,25.617,0,0,1,24.59,24.121l-4-4a1.03,1.03,0,0,0-1.46,1.452l5.73,5.729a1.023,1.023,0,0,0,.41.295q0.06,0.018.12,0.03a0.956,0.956,0,0,0,.22.052h0.06a1.04,1.04,0,0,0,.23-0.045,0.85,0.85,0,0,0,.12-0.024,0.961,0.961,0,0,0,.37-0.232l5.81-5.805a1.026,1.026,0,0,0-1.45-1.452l-4.1,4.1a27.68,27.68,0,0,0-27.6-26.293c-0.02,0-.05-0.014-0.07-0.014a0.572,0.572,0,0,0-.07.014,27.667,27.667,0,0,0-27.63,27.626c0,0.026-.01.047-0.01,0.073s0.01,0.047.01,0.073a27.693,27.693,0,0,0,26.66,27.624h0.04A1.025,1.025,0,0,0,1456.15,1020.42Zm13.77-40.5a1.024,1.024,0,0,0-1.45,0l-11.03,11.029a3.215,3.215,0,0,0-2.62,0l-5.22-5.222a1.029,1.029,0,0,0-1.46,1.451l5.22,5.212a3.073,3.073,0,1,0,5.54,0l11.02-11.02A1.027,1.027,0,0,0,1469.92,979.923Zm-13.07,14.515h0a1.049,1.049,0,0,1-1.45,0A1.026,1.026,0,1,1,1456.85,994.438Zm30.92,26.992h-3.08v-19.51a1.027,1.027,0,0,0-1.87-.58l-14.37,20.52a1.033,1.033,0,0,0,.25,1.43,1.061,1.061,0,0,0,.59.19h13.34v3.08a1.03,1.03,0,0,0,2.06,0v-3.08h3.08A1.025,1.025,0,0,0,1487.77,1021.43Zm-5.14,0h-11.37l11.37-16.25v16.25Zm-13.34,4.1h-12.15l11.3-13.3a0.865,0.865,0,0,0,.07-0.1,7.141,7.141,0,0,0-1.61-9.69,8.222,8.222,0,0,0-13.01,6.67,1.03,1.03,0,1,0,2.06,0,6.154,6.154,0,0,1,9.75-5,5.074,5.074,0,0,1,1.13,6.84l-12.69,14.94a1.02,1.02,0,0,0,.12,1.45,0.994,0.994,0,0,0,.66.24h14.37A1.025,1.025,0,1,0,1469.29,1025.53Zm-14.35-5.11a1.034,1.034,0,0,0-.98-1.07h0a25.613,25.613,0,0,1-24.66-24.611h4.07a1.026,1.026,0,0,0,0-2.052h-4.07a25.593,25.593,0,0,1,24.59-24.6v3.042a1.03,1.03,0,0,0,2.06,0V968.09a25.615,25.615,0,0,1,24.58,24.121l-4-4a1.026,1.026,0,0,0-1.45,1.452l5.73,5.729a0.928,0.928,0,0,0,.4.295q0.06,0.018.12,0.03a1.1,1.1,0,0,0,.22.052h0.06a1.04,1.04,0,0,0,.23-0.045,0.85,0.85,0,0,0,.12-0.024,1.082,1.082,0,0,0,.38-0.232l5.8-5.805a1.02,1.02,0,0,0-.02-1.452,1.032,1.032,0,0,0-1.43,0l-4.1,4.1a27.674,27.674,0,0,0-27.6-26.293,0.572,0.572,0,0,0-.07-0.014c-0.02,0-.05.013-0.07,0.014a27.667,27.667,0,0,0-27.63,27.626c0,0.026-.01.047-0.01,0.073s0.01,0.047.01,0.073a27.7,27.7,0,0,0,26.66,27.624h0.04A1.025,1.025,0,0,0,1454.94,1020.42Zm13.77-40.5a1.024,1.024,0,0,0-1.45,0l-11.03,11.029a3.215,3.215,0,0,0-2.62,0l-5.22-5.222a1.026,1.026,0,0,0-1.45,1.451l5.21,5.212a3.073,3.073,0,1,0,5.54,0l11.02-11.02A1.027,1.027,0,0,0,1468.71,979.923Zm-13.06,14.515h0a1.049,1.049,0,0,1-1.45,0,1.02,1.02,0,0,1-.01-1.452A1.029,1.029,0,0,1,1455.65,994.438Zm32.12,29.4h-3.08v-19.5a1.029,1.029,0,0,0-1.03-1.03,1.043,1.043,0,0,0-.84.44l-14.37,20.53a1.037,1.037,0,0,0,.25,1.43,1.05,1.05,0,0,0,.59.18h13.34v3.08a1.03,1.03,0,0,0,2.06,0v-3.08h3.08A1.025,1.025,0,0,0,1487.77,1023.84Zm-5.14,0h-11.37l11.37-16.24v16.24Zm-13.34,4.11h-12.15l11.3-13.31c0.02-.03.05-0.06,0.07-0.09a7.151,7.151,0,0,0-1.61-9.7,8.222,8.222,0,0,0-13.01,6.67,1.03,1.03,0,0,0,2.06,0,6.164,6.164,0,0,1,9.75-5,5.076,5.076,0,0,1,1.13,6.84l-12.69,14.95a1.021,1.021,0,0,0,.12,1.45,1.048,1.048,0,0,0,.66.24h14.37A1.025,1.025,0,1,0,1469.29,1027.95Zm-14.35-5.12a1.025,1.025,0,0,0-.98-1.06h0a25.628,25.628,0,0,1-24.66-24.615h4.07a1.027,1.027,0,0,0,0-2.053h-4.07a25.593,25.593,0,0,1,24.59-24.6v3.042a1.03,1.03,0,0,0,2.06,0v-3.042a25.615,25.615,0,0,1,24.58,24.121l-4-4a1.026,1.026,0,0,0-1.45,1.451l5.73,5.729a0.928,0.928,0,0,0,.4.295q0.06,0.018.12,0.03a1.1,1.1,0,0,0,.22.052h0.06a1.04,1.04,0,0,0,.23-0.045,0.85,0.85,0,0,0,.12-0.024,1.068,1.068,0,0,0,.38-0.232l5.8-5.805a1.018,1.018,0,0,0-.02-1.451,1.03,1.03,0,0,0-1.43,0l-4.1,4.1a27.674,27.674,0,0,0-27.6-26.293,0.572,0.572,0,0,0-.07-0.014c-0.02,0-.05.013-0.07,0.014a27.667,27.667,0,0,0-27.63,27.626c0,0.026-.01.048-0.01,0.073s0.01,0.047.01,0.073a27.692,27.692,0,0,0,26.66,27.619h0.04A1.018,1.018,0,0,0,1454.94,1022.83Zm13.77-40.492a1.024,1.024,0,0,0-1.45,0l-11.03,11.029a3.223,3.223,0,0,0-2.62,0l-5.22-5.222a1.026,1.026,0,0,0-1.45,1.451l5.21,5.212a3.073,3.073,0,1,0,5.54,0l11.02-11.019A1.028,1.028,0,0,0,1468.71,982.338Zm-13.06,14.516h0a1.049,1.049,0,0,1-1.45,0,1.02,1.02,0,0,1-.01-1.452A1.03,1.03,0,1,1,1455.65,996.854Zm33.32,26.986h-3.08v-19.5a1.021,1.021,0,0,0-1.86-.59l-14.37,20.53a1.018,1.018,0,0,0,.84,1.61h13.34v3.08a1.025,1.025,0,1,0,2.05,0v-3.08h3.08A1.025,1.025,0,1,0,1488.97,1023.84Zm-5.13,0h-11.37l11.37-16.24v16.24Zm-13.34,4.11h-12.15l11.29-13.31c0.03-.03.05-0.06,0.08-0.09a7.153,7.153,0,0,0-1.62-9.7,8.209,8.209,0,0,0-13,6.67,1.025,1.025,0,1,0,2.05,0,6.172,6.172,0,0,1,9.76-5,5.064,5.064,0,0,1,1.12,6.84l-12.68,14.95a1.029,1.029,0,0,0,.11,1.45,1.1,1.1,0,0,0,.67.24h14.37A1.025,1.025,0,0,0,1470.5,1027.95Zm-14.35-5.12a1.027,1.027,0,0,0-.99-1.06h0a25.635,25.635,0,0,1-24.66-24.615h4.07a1.027,1.027,0,1,0,0-2.053h-4.07a25.609,25.609,0,0,1,24.6-24.6v3.042a1.025,1.025,0,1,0,2.05,0v-3.042a25.617,25.617,0,0,1,24.59,24.121l-4-4a1.029,1.029,0,0,0-1.46,1.451l5.73,5.729a1.023,1.023,0,0,0,.41.295q0.06,0.018.12,0.03a0.956,0.956,0,0,0,.22.052h0.06a1.04,1.04,0,0,0,.23-0.045,0.85,0.85,0,0,0,.12-0.024,0.95,0.95,0,0,0,.37-0.232l5.81-5.805a1.026,1.026,0,0,0-1.45-1.451l-4.1,4.1a27.68,27.68,0,0,0-27.6-26.293c-0.02,0-.05-0.014-0.07-0.014a0.572,0.572,0,0,0-.07.014,27.667,27.667,0,0,0-27.63,27.626c0,0.026-.01.048-0.01,0.073s0.01,0.047.01,0.073a27.685,27.685,0,0,0,26.66,27.619h0.04A1.018,1.018,0,0,0,1456.15,1022.83Zm13.77-40.492a1.024,1.024,0,0,0-1.45,0l-11.03,11.029a3.223,3.223,0,0,0-2.62,0l-5.22-5.222a1.029,1.029,0,0,0-1.46,1.451l5.22,5.212a3.073,3.073,0,1,0,5.54,0l11.02-11.019A1.028,1.028,0,0,0,1469.92,982.338Zm-13.07,14.516h0a1.049,1.049,0,0,1-1.45,0A1.026,1.026,0,1,1,1456.85,996.854Zm29.71,25.776h-3.08v-19.5a1.032,1.032,0,0,0-1.87-.59l-14.37,20.53a1.026,1.026,0,0,0,.26,1.43,1,1,0,0,0,.58.19h13.35v3.08a1.025,1.025,0,0,0,2.05,0v-3.08h3.08A1.03,1.03,0,0,0,1486.56,1022.63Zm-5.13,0h-11.38l11.38-16.24v16.24Zm-13.35,4.11h-12.15l11.3-13.3c0.02-.03.05-0.07,0.07-0.1a7.129,7.129,0,0,0-1.61-9.69,8.2,8.2,0,0,0-13,6.67,1.025,1.025,0,0,0,2.05,0,6.164,6.164,0,0,1,9.75-5.01,5.076,5.076,0,0,1,1.13,6.85l-12.69,14.94a1.03,1.03,0,0,0,.12,1.45,0.994,0.994,0,0,0,.66.24h14.37A1.025,1.025,0,1,0,1468.08,1026.74Zm-14.34-5.11a1.029,1.029,0,0,0-.99-1.07h0a25.62,25.62,0,0,1-24.66-24.613h4.07a1.027,1.027,0,0,0,0-2.053h-4.07a25.6,25.6,0,0,1,24.6-24.6v3.042a1.025,1.025,0,1,0,2.05,0V969.3a25.615,25.615,0,0,1,24.58,24.121l-4-4a1.026,1.026,0,0,0-1.45,1.451l5.73,5.73a1.072,1.072,0,0,0,.4.294,0.964,0.964,0,0,0,.13.03,1.007,1.007,0,0,0,.21.052h0.06a0.938,0.938,0,0,0,.23-0.045,1.181,1.181,0,0,0,.13-0.023,1.056,1.056,0,0,0,.37-0.232l5.81-5.806a1.029,1.029,0,0,0-1.46-1.451l-4.1,4.1a27.664,27.664,0,0,0-27.59-26.292c-0.03,0-.05-0.015-0.08-0.015s-0.04.014-.07,0.015a27.672,27.672,0,0,0-27.63,27.626c0,0.026-.01.047-0.01,0.073s0.01,0.047.01,0.073a27.685,27.685,0,0,0,26.66,27.616h0.04A1.032,1.032,0,0,0,1453.74,1021.63Zm13.76-40.5a1.024,1.024,0,0,0-1.45,0l-11.03,11.029a3.215,3.215,0,0,0-2.62,0l-5.22-5.223a1.025,1.025,0,0,0-1.45.025,1.036,1.036,0,0,0,0,1.427l5.21,5.212a3.075,3.075,0,0,0,4.95,3.5,3.041,3.041,0,0,0,.59-3.5l11.02-11.02A1.027,1.027,0,0,0,1467.5,981.131Zm-13.06,14.515h0a1.049,1.049,0,0,1-1.45,0A1.026,1.026,0,1,1,1454.44,995.646Zm32.12,28.194h-3.08v-19.5a1.029,1.029,0,0,0-1.03-1.03,1.043,1.043,0,0,0-.84.44l-14.37,20.53a1.03,1.03,0,0,0,.26,1.43,1,1,0,0,0,.58.18h13.35v3.08a1.025,1.025,0,1,0,2.05,0v-3.08h3.08A1.025,1.025,0,0,0,1486.56,1023.84Zm-5.13,0h-11.38l11.38-16.24v16.24Zm-13.35,4.11h-12.15l11.3-13.31c0.02-.03.05-0.06,0.07-0.09a7.141,7.141,0,0,0-1.61-9.7,8.209,8.209,0,0,0-13,6.67,1.025,1.025,0,1,0,2.05,0,6.165,6.165,0,0,1,9.75-5,5.066,5.066,0,0,1,1.13,6.84l-12.69,14.95a1.03,1.03,0,0,0,.12,1.45,1.048,1.048,0,0,0,.66.24h14.37A1.025,1.025,0,1,0,1468.08,1027.95Zm-14.34-5.12a1.027,1.027,0,0,0-.99-1.06h0a25.635,25.635,0,0,1-24.66-24.615h4.07a1.027,1.027,0,0,0,0-2.053h-4.07a25.6,25.6,0,0,1,24.6-24.6v3.042a1.025,1.025,0,1,0,2.05,0v-3.042a25.615,25.615,0,0,1,24.58,24.121l-4-4a1.026,1.026,0,0,0-1.45,1.451l5.73,5.729a1.064,1.064,0,0,0,.4.295,0.964,0.964,0,0,0,.13.03,1.007,1.007,0,0,0,.21.052h0.06a0.938,0.938,0,0,0,.23-0.045,0.988,0.988,0,0,0,.13-0.024,1.028,1.028,0,0,0,.37-0.232l5.81-5.805a1.029,1.029,0,0,0-1.46-1.451l-4.1,4.1a27.664,27.664,0,0,0-27.59-26.293c-0.03,0-.05-0.014-0.08-0.014s-0.04.013-.07,0.014a27.673,27.673,0,0,0-27.63,27.626c0,0.026-.01.048-0.01,0.073s0.01,0.047.01,0.073a27.692,27.692,0,0,0,26.66,27.619h0.04A1.034,1.034,0,0,0,1453.74,1022.83Zm13.76-40.492a1.024,1.024,0,0,0-1.45,0l-11.03,11.029a3.223,3.223,0,0,0-2.62,0l-5.22-5.222a1.026,1.026,0,0,0-1.45,1.451l5.21,5.212a3.075,3.075,0,0,0,4.95,3.5,3.041,3.041,0,0,0,.59-3.5l11.02-11.019A1.028,1.028,0,0,0,1467.5,982.338Zm-13.06,14.516h0a1.049,1.049,0,0,1-1.45,0A1.026,1.026,0,1,1,1454.44,996.854Z" transform="translate(-1426 -966)"/>
</svg>
